<svg xmlns="http://www.w3.org/2000/svg" width="48" height="48" viewBox="0 0 48 48">
  <g id="instagram" transform="translate(-715 -2889)">
    <g id="Ellipse_4" data-name="Ellipse 4" transform="translate(715 2889)" fill="#343a40" stroke="#ced4da" stroke-width="1">
      <circle cx="24" cy="24" r="24" stroke="none"/>
      <circle cx="24" cy="24" r="23.5" fill="none"/>
    </g>
    <path id="icon-instagram" d="M12,7.836a6.153,6.153,0,1,0,6.152,6.153A6.143,6.143,0,0,0,12,7.836ZM12,17.99a4,4,0,1,1,4-4,4.007,4.007,0,0,1-4,4ZM19.836,7.584A1.435,1.435,0,1,1,18.4,6.149,1.432,1.432,0,0,1,19.836,7.584Zm4.075,1.457a7.1,7.1,0,0,0-1.938-5.029,7.147,7.147,0,0,0-5.028-1.939c-1.981-.112-7.919-.112-9.9,0A7.137,7.137,0,0,0,2.018,4.007,7.127,7.127,0,0,0,.08,9.035c-.112,1.981-.112,7.921,0,9.9a7.1,7.1,0,0,0,1.938,5.029A7.156,7.156,0,0,0,7.045,25.9c1.981.112,7.919.112,9.9,0a7.1,7.1,0,0,0,5.028-1.939,7.15,7.15,0,0,0,1.938-5.029c.112-1.981.112-7.915,0-9.9ZM21.352,21.063a4.05,4.05,0,0,1-2.281,2.281c-1.579.627-5.327.482-7.073.482s-5.5.139-7.073-.482a4.05,4.05,0,0,1-2.281-2.281c-.626-1.58-.482-5.329-.482-7.074s-.139-5.5.482-7.074A4.05,4.05,0,0,1,4.925,4.633C6.5,4.007,10.253,4.151,12,4.151s5.5-.139,7.073.482a4.05,4.05,0,0,1,2.281,2.281c.626,1.58.482,5.329.482,7.074S21.978,19.489,21.352,21.063Z" transform="translate(727.005 2899.011)" fill="#ced4da"/>
  </g>
</svg>
