<svg id="dotgo-logo" xmlns="http://www.w3.org/2000/svg" width="120" height="80" viewBox="0 0 120 80">
  <rect id="Rectangle_115" data-name="Rectangle 115" width="55.801" height="79.933" transform="translate(64.199)" fill="#fff"/>
  <rect id="Rectangle_116" data-name="Rectangle 116" width="64.392" height="79.933" transform="translate(0 0.067)" fill="#ffdb57"/>
  <path id="Path_32" data-name="Path 32" d="M78.908,64.225H73.05V49.132h5.859c3.722,0,5.1,1.883,5.1,3.923V60.3C84,62.319,82.63,64.225,78.908,64.225ZM80.6,53.97c0-1.176-.406-1.835-2.107-1.835h-2.04V61.2h2.04c1.7,0,2.107-.659,2.107-1.835Z" transform="translate(-62.274 -29.512)" fill="#313131"/>
  <path id="Path_33" data-name="Path 33" d="M97.962,59.825c0,2.293-1.586,4.627-5.847,4.627s-5.851-2.334-5.851-4.627v-6.3c0-2.293,1.589-4.627,5.851-4.627s5.847,2.334,5.847,4.627Zm-3.4-6c0-1.18-.744-1.906-2.445-1.906s-2.449.744-2.449,1.906v5.71c0,1.18.744,1.906,2.449,1.906s2.445-.726,2.445-1.906Z" transform="translate(-62.274 -29.513)" fill="#313131"/>
  <path id="Path_34" data-name="Path 34" d="M106.824,52.143V64.225h-3.4V52.143H99.38V49.132h11.5v3.015Z" transform="translate(-62.274 -29.512)" fill="#313131"/>
  <path id="Path_35" data-name="Path 35" d="M112.623,64.225V60.462h3.264v3.763Z" transform="translate(-62.274 -29.444)" fill="#313131"/>
  <path id="Path_36" data-name="Path 36" d="M81.573,92.9c-5.509,0-8.3-2.821-8.3-6.934V76.507c0-4.18,2.788-6.934,8.3-6.934a39.908,39.908,0,0,1,7.239.715l-.61,4.466a52.685,52.685,0,0,0-6.629-.547c-2.55,0-3.2,1.329-3.2,3.093v7.787c0,1.768.648,3.231,3.2,3.231a20.315,20.315,0,0,0,3.026-.2V81.167h4.794V91.809A28.891,28.891,0,0,1,81.573,92.9Z" transform="translate(-62.274 -29.245)" fill="#313131"/>
  <path id="Path_37" data-name="Path 37" d="M92.792,86.2V82.355c0-3.4,1.6-6.7,7.481-6.7s7.478,3.3,7.478,6.7V86.2c0,3.4-1.6,6.7-7.478,6.7S92.792,89.6,92.792,86.2Zm10.05.134V82.239c0-1.563-.815-2.449-2.583-2.449s-2.583.886-2.583,2.449v4.094c0,1.563.815,2.449,2.583,2.449s2.6-.886,2.6-2.431Z" transform="translate(-62.274 -29.227)" fill="#313131"/>
  <path id="Path_38" data-name="Path 38" d="M131.6,61.589a6.5,6.5,0,0,1-2.1-.339l.123-.5a7.53,7.53,0,0,0,2,.283c1.273,0,1.619-.372,1.619-1.254,0-1.087,0-1.2-1.664-1.56-1.8-.372-2-.7-2-2.11,0-1.146.447-1.749,2.311-1.749a8.274,8.274,0,0,1,1.921.242l-.078.529a9.468,9.468,0,0,0-1.82-.212c-1.489,0-1.675.339-1.675,1.213,0,1.139.034,1.191,1.6,1.56,1.954.465,2.066.744,2.066,2.055C133.9,60.893,133.485,61.589,131.6,61.589Z" transform="translate(-62.274 -29.487)" fill="#313131"/>
  <path id="Path_39" data-name="Path 39" d="M137.829,61.589c-1.53,0-2.11-.811-2.11-1.861V58.117c0-1.057.581-1.861,2.11-1.861s2.11.811,2.11,1.861v1.612C139.95,60.778,139.359,61.589,137.829,61.589Zm1.463-3.5c0-.864-.447-1.3-1.463-1.3s-1.463.435-1.463,1.3v1.653c0,.867.447,1.3,1.463,1.3s1.463-.432,1.463-1.3Z" transform="translate(-62.274 -29.476)" fill="#313131"/>
  <path id="Path_40" data-name="Path 40" d="M142.184,59.84c0,.916.391,1.2,1.407,1.2a7.3,7.3,0,0,0,1.161-.108l.078.506a5.5,5.5,0,0,1-1.239.149c-1.53,0-2.055-.663-2.055-1.772v-1.8c0-1.117.525-1.772,2.055-1.772a5.5,5.5,0,0,1,1.239.149l-.078.506a7.3,7.3,0,0,0-1.161-.108c-1.016,0-1.407.287-1.407,1.2Z" transform="translate(-62.274 -29.476)" fill="#313131"/>
  <path id="Path_41" data-name="Path 41" d="M146.65,55.381V54.264h.648v1.117Zm0,6.1V56.352h.648v5.133Z" transform="translate(-62.274 -29.488)" fill="#313131"/>
  <path id="Path_42" data-name="Path 42" d="M153.138,61.485h-.558l-.045-.4a3.592,3.592,0,0,1-1.842.506,1.262,1.262,0,0,1-1.407-1.433c0-1.087.525-1.422,1.6-1.422h1.608v-1c0-.707-.391-.942-1.284-.942a8.755,8.755,0,0,0-1.608.171l-.1-.517a7.352,7.352,0,0,1,1.675-.2c1.407,0,1.965.529,1.965,1.489Zm-.648-2.2H150.9c-.744,0-.971.208-.971.886,0,.6.134.875.893.875a3.179,3.179,0,0,0,1.664-.529Z" transform="translate(-62.274 -29.476)" fill="#313131"/>
  <path id="Path_43" data-name="Path 43" d="M155.237,61.485V54.253l.648-.086v7.318Z" transform="translate(-62.274 -29.488)" fill="#313131"/>
  <path id="Path_44" data-name="Path 44" d="M129.666,74.885v-7.02h2.792c1,0,1.6.45,1.6,1.381v.841a1.117,1.117,0,0,1-.849,1.139,1.236,1.236,0,0,1,1.083,1.306v.919c0,.968-.744,1.433-1.708,1.433Zm3.722-5.725c0-.484-.29-.744-.927-.744h-2.144v2.605h1.921c.815,0,1.15-.4,1.15-.957Zm.234,3.395c0-.592-.372-.99-1.228-.99h-2.077v2.769h2.267c.7,0,1.038-.324,1.038-.882Z" transform="translate(-62.274 -29.365)" fill="#313131"/>
  <path id="Path_45" data-name="Path 45" d="M138.532,70.247a12.116,12.116,0,0,0-1.72.949v3.689h-.648V69.752h.581l.033.778a9.446,9.446,0,0,1,1.675-.886Z" transform="translate(-62.274 -29.358)" fill="#313131"/>
  <path id="Path_46" data-name="Path 46" d="M143.591,74.885h-.558l-.045-.4a3.592,3.592,0,0,1-1.861.506,1.262,1.262,0,0,1-1.407-1.433c0-1.087.525-1.422,1.6-1.422h1.612v-1c0-.707-.391-.942-1.284-.942a8.754,8.754,0,0,0-1.608.171l-.1-.517a7.351,7.351,0,0,1,1.675-.2c1.407,0,1.965.529,1.965,1.489Zm-.663-2.2h-1.586c-.744,0-.971.208-.971.886,0,.6.134.875.893.875a3.179,3.179,0,0,0,1.664-.529Z" transform="translate(-62.274 -29.358)" fill="#313131"/>
  <path id="Path_47" data-name="Path 47" d="M149.017,74.885V70.72c0-.372-.212-.517-.592-.517a5.955,5.955,0,0,0-2.088.592v4.094h-.648V69.752h.588l.045.462a6.361,6.361,0,0,1,2.211-.569,1.015,1.015,0,0,1,1.15,1.161V74.9Z" transform="translate(-62.274 -29.358)" fill="#313131"/>
  <path id="Path_48" data-name="Path 48" d="M151.653,71.226c0-.938.447-1.582,1.675-1.582a8.39,8.39,0,0,1,1.675.171V67.653l.648-.086v7.318h-.592l-.034-.488a3.246,3.246,0,0,1-1.831.592c-1.061,0-1.541-.5-1.541-1.422Zm3.35-.852a8.74,8.74,0,0,0-1.7-.182c-.715,0-1,.339-1,1.035v2.341c0,.588.2.875.938.875A2.885,2.885,0,0,0,155,73.787Z" transform="translate(-62.274 -29.366)" fill="#313131"/>
  <path id="Path_49" data-name="Path 49" d="M157.861,68.78V67.664h.648V68.78Zm0,6.1V69.752h.648v5.133Z" transform="translate(-62.274 -29.366)" fill="#313131"/>
  <path id="Path_50" data-name="Path 50" d="M164.047,74.885V70.72c0-.372-.212-.517-.592-.517a5.955,5.955,0,0,0-2.088.592v4.094h-.648V69.752h.569l.045.462a6.361,6.361,0,0,1,2.211-.569,1.015,1.015,0,0,1,1.15,1.161V74.9Z" transform="translate(-62.274 -29.358)" fill="#313131"/>
  <path id="Path_51" data-name="Path 51" d="M168.715,73.325a3.874,3.874,0,0,1-.726-.063.845.845,0,0,0-.424.674c0,.2.123.339.491.372l1.563.115c.994.074,1.351.506,1.351,1.225,0,1.065-.558,1.433-2.323,1.433a8.561,8.561,0,0,1-1.909-.253l.1-.484a9.48,9.48,0,0,0,1.831.208c1.489,0,1.664-.283,1.664-.875,0-.506-.223-.7-.871-.744s-.744-.041-1.489-.093c-.8-.063-1.072-.454-1.072-.908a1.05,1.05,0,0,1,.514-.864,1.589,1.589,0,0,1-.8-1.537v-.067c0-1.161.547-1.805,2.088-1.805a3.25,3.25,0,0,1,.916.108H171.1v.439l-.681.056a1.831,1.831,0,0,1,.372,1.2v.063C170.8,72.67,170.144,73.325,168.715,73.325Zm0-3.141c-1.083,0-1.463.316-1.463,1.254v.1c0,.971.469,1.254,1.463,1.254s1.463-.328,1.463-1.254v-.1c0-.938-.38-1.266-1.463-1.266Z" transform="translate(-62.274 -29.347)" fill="#313131"/>
  <path id="Path_52" data-name="Path 52" d="M133.854,86.438h-3.462L129.7,88.3h-.648l2.605-7.02h.971l2.605,7.02h-.648Zm-3.261-.536h3.06l-1.519-4.28Z" transform="translate(-62.274 -29.244)" fill="#313131"/>
  <path id="Path_53" data-name="Path 53" d="M137.427,88.284l-1.239-5.133h.614l1.117,4.72,1.489-4.72h.871l1.463,4.72,1.117-4.72h.614l-1.239,5.133h-.971l-1.429-4.694L138.4,88.284Z" transform="translate(-62.274 -29.24)" fill="#313131"/>
  <path id="Path_54" data-name="Path 54" d="M148.638,88.284h-.558l-.045-.4a3.592,3.592,0,0,1-1.861.506,1.262,1.262,0,0,1-1.407-1.433c0-1.087.525-1.422,1.6-1.422h1.608v-1c0-.707-.391-.942-1.284-.942a8.754,8.754,0,0,0-1.608.171l-.1-.517a7.351,7.351,0,0,1,1.675-.2c1.407,0,1.965.529,1.965,1.489Zm-.648-2.2H146.4c-.744,0-.971.208-.971.886,0,.6.134.875.893.875a3.179,3.179,0,0,0,1.664-.529Z" transform="translate(-62.274 -29.239)" fill="#313131"/>
  <path id="Path_55" data-name="Path 55" d="M153.1,83.646a12.115,12.115,0,0,0-1.72.949v3.689h-.64V83.151h.581l.034.778a9.446,9.446,0,0,1,1.675-.886Z" transform="translate(-62.274 -29.24)" fill="#313131"/>
  <path id="Path_56" data-name="Path 56" d="M156.328,87.841a7.444,7.444,0,0,0,1.72-.242l.112.5a6.368,6.368,0,0,1-1.861.283c-1.53,0-2.021-.744-2.021-1.861V84.9c0-1.057.5-1.861,2.032-1.861s1.976.811,1.976,1.861v.99h-3.35v.64C154.9,87.469,155.237,87.841,156.328,87.841Zm-1.418-2.5h2.725v-.462c0-.864-.324-1.318-1.34-1.318s-1.385.454-1.385,1.318Z" transform="translate(-62.274 -29.239)" fill="#313131"/>
  <path id="Path_57" data-name="Path 57" d="M163.522,88.284V84.119c0-.372-.212-.517-.592-.517a5.955,5.955,0,0,0-2.088.592v4.094h-.648V83.151h.569l.045.462a6.361,6.361,0,0,1,2.211-.569,1.015,1.015,0,0,1,1.15,1.161V88.3Z" transform="translate(-62.274 -29.24)" fill="#313131"/>
  <path id="Path_58" data-name="Path 58" d="M168.112,87.841a7.444,7.444,0,0,0,1.72-.242l.112.5a6.368,6.368,0,0,1-1.861.283c-1.53,0-2.021-.744-2.021-1.861V84.9c0-1.057.5-1.861,2.032-1.861s1.976.811,1.976,1.861v.99h-3.35v.64C166.694,87.469,167.029,87.841,168.112,87.841Zm-1.418-2.5h2.725v-.462c0-.864-.324-1.318-1.34-1.318s-1.385.454-1.385,1.318Z" transform="translate(-62.274 -29.239)" fill="#313131"/>
  <path id="Path_59" data-name="Path 59" d="M173.416,88.388a4.839,4.839,0,0,1-1.6-.264l.112-.5a5.583,5.583,0,0,0,1.44.212c1,0,1.206-.179,1.206-.834,0-.744-.022-.811-1.262-1.087-1.362-.305-1.489-.622-1.489-1.56,0-.852.435-1.318,1.775-1.318a6.506,6.506,0,0,1,1.541.179l-.067.517a9.01,9.01,0,0,0-1.519-.149c-.949,0-1.083.234-1.083.793,0,.707.045.778,1.05,1.024,1.6.372,1.686.622,1.686,1.578S174.867,88.388,173.416,88.388Z" transform="translate(-62.274 -29.239)" fill="#313131"/>
  <path id="Path_60" data-name="Path 60" d="M178.586,88.388a4.839,4.839,0,0,1-1.6-.264l.112-.5a5.583,5.583,0,0,0,1.44.212c1,0,1.206-.179,1.206-.834,0-.744-.022-.811-1.262-1.087-1.362-.305-1.489-.622-1.489-1.56,0-.852.435-1.318,1.775-1.318a6.506,6.506,0,0,1,1.541.179l-.052.525a9.01,9.01,0,0,0-1.519-.149c-.949,0-1.083.234-1.083.793,0,.707.045.778,1.05,1.024,1.6.372,1.686.622,1.686,1.578S180.037,88.388,178.586,88.388Z" transform="translate(-62.274 -29.239)" fill="#313131"/>
</svg>
