<svg xmlns="http://www.w3.org/2000/svg" width="48" height="48" viewBox="0 0 48 48">
  <g id="twitter" transform="translate(-646 -2889)">
    <g id="Ellipse_4" data-name="Ellipse 4" transform="translate(646 2889)" fill="#343a40" stroke="#ced4da" stroke-width="1">
      <circle cx="24" cy="24" r="24" stroke="none"/>
      <circle cx="24" cy="24" r="23.5" fill="none"/>
    </g>
    <path id="icon-twitter" d="M26.019,8.986c.018.262.018.525.018.788,0,8.006-5.98,17.231-16.911,17.231A16.57,16.57,0,0,1,0,24.286a12.069,12.069,0,0,0,1.435.075,11.763,11.763,0,0,0,7.379-2.587,5.969,5.969,0,0,1-5.557-4.2,7.359,7.359,0,0,0,1.123.094,6.176,6.176,0,0,0,1.564-.206,6.03,6.03,0,0,1-4.766-5.944v-.075a5.9,5.9,0,0,0,2.687.769,6.141,6.141,0,0,1-1.84-8.1,16.793,16.793,0,0,0,12.255,6.338,6.961,6.961,0,0,1-.147-1.387,6,6,0,0,1,5.944-6.056,5.878,5.878,0,0,1,4.343,1.912A11.57,11.57,0,0,0,28.19,3.455a6.021,6.021,0,0,1-2.613,3.337A11.741,11.741,0,0,0,29,5.855a12.911,12.911,0,0,1-2.981,3.131Z" transform="translate(656.5 2897.996)" fill="#ced4da"/>
  </g>
</svg>
